<?xml version="1.0" encoding="UTF-8"?>
<svg width="55.643" height="55.64" version="1.1" viewBox="0 0 55.643 55.64" xmlns="http://www.w3.org/2000/svg">
 <path d="m55.413 0.3675-0.1163-0.1162 0.17-0.0029z" fill="#474747"/>
 <path d="m29.901 25.712 4.1227-4.1176 6e-3 0.0059 0.0258-0.0377c6.5598-6.5517 13.123-13.107 19.689-19.665l1.8983-1.896-2.5016 1.1187c-5.2432 2.1462-10.485 4.3023-15.726 6.4683-0.2207 0.1151-0.3887 0.3106-0.4691 0.546-0.6391 1.9526-1.2444 3.9191-1.8795 5.8658-0.0423 0.1132-0.1078 0.2164-0.1923 0.3029-0.0846 0.0865-0.1863 0.1544-0.2987 0.1994-3.101 0.8563-6.2076 1.6905-9.3199 2.5025-0.1189 0.0214-0.241 0.0175-0.3583-0.0114s-0.2272-0.0822-0.3225-0.1563c-1.5034-1.3468-2.9913-2.7117-4.4636-4.0949-0.1178-0.1266-0.2659-0.2212-0.4304-0.2751-0.1644-0.0538-0.3399-0.065-0.5099-0.0326-6.2311 0.8603-12.463 1.7121-18.695 2.5552-0.13517 0.0179-0.26736 0.0585-0.47608 0.1062 0.2286 0.1827 0.38564 0.3117 0.55162 0.4417l5.9456 4.5842c2.9598 2.2812 5.9147 4.5654 8.8875 6.8297 0.221 0.1448 0.4892 0.1995 0.7494 0.1529 1.9713-0.4123 3.9386-0.8478 5.9019-1.3064 0.4005-0.0943 0.644-0.0099 0.9193 0.273 1.0804 1.1048 2.1946 2.1918 3.2988 3.2828 1.2007-1.1992 2.4013-2.3983 3.602-3.5975l0.0447-0.0447z" fill="#06c66a"/>
 <path d="m40.649 55.216c0.8614-6.3082 1.7165-12.619 2.5653-18.933 0.0117-0.244-0.0717-0.4831-0.2326-0.6671-1.3498-1.5009-2.7164-2.985-4.085-4.4571-0.1274-0.1178-0.2172-0.2704-0.2582-0.4388-0.041-0.1685-0.0314-0.3452 0.0276-0.5082 0.8336-3.0191 1.6496-6.0425 2.448-9.0702 0.0242-0.1421 0.0906-0.2738 0.1905-0.3778 0.1-0.1041 0.2289-0.1758 0.3701-0.2059 1.9252-0.5926 3.8385-1.221 5.7647-1.8086 0.1668-0.0416 0.3207-0.1241 0.4476-0.2401 0.1268-0.1159 0.2227-0.2617 0.2789-0.424 1.0128-2.5006 2.0465-4.9922 3.0692-7.4868 1.3544-3.305 2.7071-6.611 4.0581-9.9179l0.3479-0.681-0.2982 0.2978-0.8816 0.8805c-6.7983 6.7979-13.601 13.592-20.407 20.382l-4.2033 4.1981c-1.1993 1.1978-2.3989 2.396-3.5989 3.5945 1.0794 1.088 2.1478 2.1849 3.2451 3.255 0.2982 0.2978 0.3976 0.546 0.2972 0.9698-0.4483 1.8871-0.8319 3.7911-1.2891 5.6752-0.1233 0.5202-5e-3 0.8785 0.3101 1.2647 0.649 0.7912 1.2732 1.6051 1.8983 2.4162 1.3577 1.753 2.7035 3.5141 4.0622 5.2741 1.3775 1.7848 2.7561 3.568 4.1356 5.3495 0.5208 0.6711 1.0506 1.3332 1.64 2.0827 0.0566-0.2154 0.0835-0.3197 0.0974-0.4229zm-5.9168-32.62c0.1775 0.4237 0.2412 0.8863 0.1849 1.3421 0.0422-0.4556-0.021-0.9148-0.1849-1.3421zm-1.3447 3.662c0.2464-0.1352 0.4725-0.3043 0.6719-0.5023-0.1966 0.2019-0.4236 0.3717-0.6729 0.5033z" fill="#00ff8b"/>
 <path d="m34.059 21.558c-0.2737-0.2856-0.6018-0.5137-0.965-0.6709s-0.7542-0.2404-1.15-0.2447-0.7885 0.0704-1.155 0.2197-0.6995 0.3702-0.9794 0.6497c-0.2799 0.2796-0.5011 0.6122-0.6506 0.9782-0.1495 0.3661-0.2243 0.7583-0.22 1.1536 0.0043 0.3954 0.0877 0.7859 0.2451 1.1486s0.3858 0.6904 0.6717 0.9638z" fill="#09914d"/>
 <path d="m34.058 25.756c0.5573-0.5566 0.8705-1.3116 0.8707-2.0988s-0.3126-1.5423-0.8697-2.0992l-4.2033 4.198c0.5575 0.5562 1.3132 0.8687 2.1011 0.8687 0.788 0 1.5437-0.3125 2.1012-0.8687z" fill="#076d37"/>
</svg>
