<?xml version="1.0" encoding="UTF-8"?>
<svg width="34.059" height="34.099" fill="none" version="1.1" viewBox="0 0 34.059 34.099" xmlns="http://www.w3.org/2000/svg">
 <g transform="translate(-.012829 -12.403)">
  <path d="m33.931 12.629-0.0711-0.0713 0.1039-0.0019z" fill="#474747"/>
  <path d="m18.315 28.161 2.5236-2.5235 0.0036 0.0036 0.0158-0.0231 13.214-13.214-1.5312 0.6856c-3.2094 1.3153-6.418 2.6367-9.6258 3.9642-0.1351 0.0705-0.2379 0.1903-0.2871 0.3346-0.3912 1.1967-0.7617 2.4019-1.1505 3.5949-0.0258 0.0694-0.0659 0.1327-0.1177 0.1857s-0.114 0.0946-0.1828 0.1221c-1.8981 0.5249-3.7997 1.0361-5.7047 1.5337-0.0728 0.0131-0.1475 0.0107-0.2194-7e-3 -0.0718-0.0177-0.139-0.0503-0.1974-0.0958-0.9202-0.8253-1.831-1.6619-2.7322-2.5095-0.0721-0.0776-0.1627-0.1356-0.2634-0.1686s-0.2081-0.0399-0.3121-0.02c-3.8141 0.5272-7.6286 1.0492-11.444 1.5659-0.08274 0.011-0.16365 0.0359-0.29141 0.0651 0.13993 0.112 0.23605 0.1911 0.33765 0.2708l3.6393 2.8094c1.8118 1.3981 3.6204 2.798 5.4401 4.1857 0.13529 0.0887 0.29945 0.1223 0.45872 0.0937 1.2066-0.2527 2.4108-0.5196 3.6125-0.8007 0.2452-0.0578 0.3943-6e-3 0.5628 0.1673 0.6613 0.6772 1.3433 1.3433 2.0192 2.0119l2.2047-2.2047z" fill="#fff"/>
  <path d="m24.895 46.244c0.5272-3.8661 1.0506-7.7339 1.5702-11.604 0.0072-0.1495-0.0439-0.2961-0.1424-0.4088-0.8262-0.9199-1.6627-1.8294-2.5004-2.7316-0.078-0.0722-0.133-0.1657-0.1581-0.269-0.0251-0.1032-0.0192-0.2115 0.017-0.3114 0.5102-1.8503 1.0097-3.7032 1.4984-5.5588 0.0148-0.0871 0.0554-0.1678 0.1166-0.2315 0.0612-0.0638 0.1401-0.1078 0.2265-0.1262 1.1784-0.3632 2.3495-0.7483 3.5286-1.1085 0.1021-0.0254 0.1963-0.076 0.274-0.1471 0.0776-0.071 0.1363-0.1604 0.1707-0.2599 0.6199-1.5325 1.2526-3.0595 1.8787-4.5883 0.829-2.0255 1.657-4.0516 2.484-6.0783l0.2129-0.4174-0.7222 0.7222c-4.1612 4.1661-8.325 8.3299-12.491 12.491l-4.7757 4.7757c0.6606 0.6668 1.3147 1.3391 1.9863 1.9949 0.1825 0.1825 0.2433 0.3346 0.1819 0.5944-0.2744 1.1565-0.5092 2.3234-0.7891 3.4781-0.0754 0.3187-3e-3 0.5384 0.1899 0.775 0.3972 0.4849 0.7793 0.9838 1.1619 1.4808 0.8311 1.0744 1.6548 2.1537 2.4865 3.2323 0.8432 1.0939 1.687 2.1867 2.5314 3.2786 0.3188 0.4112 0.6431 0.817 1.0038 1.2763 0.0347-0.132 0.0511-0.1959 0.0597-0.2591zm-3.6217-19.992c0.1087 0.2597 0.1477 0.5432 0.1132 0.8225 0.0258-0.2792-0.0129-0.5606-0.1132-0.8225zm-0.8231 2.2443c0.1508-0.0829 0.2892-0.1865 0.4112-0.3078-0.1203 0.1237-0.2592 0.2278-0.4118 0.3084z" fill="#fff"/>
  <path d="m20.861 25.617c-0.1675-0.175-0.3684-0.3148-0.5907-0.4112-0.2223-0.0963-0.4616-0.1473-0.7039-0.1499-0.2423-0.0027-0.4827 0.0431-0.7071 0.1346-0.2243 0.0915-0.4282 0.2269-0.5995 0.3982s-0.3067 0.3751-0.3982 0.5995c-0.0916 0.2243-0.1373 0.4647-0.1347 0.7069 0.0026 0.2423 0.0536 0.4816 0.15 0.7039s0.2362 0.4231 0.4112 0.5907z" fill="#000"/>
  <path d="m20.86 28.189c0.3412-0.3412 0.5329-0.8038 0.533-1.2863s-0.1914-0.9452-0.5324-1.2865l-2.5728 2.5728c0.3412 0.3409 0.8038 0.5324 1.2861 0.5324s0.9449-0.1915 1.2861-0.5324z" fill="#000"/>
 </g>
</svg>
