<svg width="27" height="29" viewBox="0 0 27 29" fill="none" xmlns="http://www.w3.org/2000/svg">
<rect x="2.30115" y="2.26587" width="24.6989" height="25.9615" rx="1.22727" fill="#B03227"/>
<rect width="24.6989" height="25.9615" rx="1.22727" fill="white"/>
<path d="M16.944 8.76231C16.8022 8.6438 16.6188 8.58267 16.4318 8.5917C16.2442 8.60332 16.0691 8.68665 15.9448 8.82321L10.716 14.5513L7.35061 11.7726C7.17212 11.5979 6.91108 11.5288 6.66576 11.5913C6.42043 11.6538 6.22822 11.8385 6.16145 12.0758C6.09462 12.313 6.16343 12.5667 6.34192 12.7415L9.9934 16.8882C10.0504 16.9538 10.1159 17.0122 10.1882 17.0619C10.3763 17.1945 10.6029 17.266 10.8355 17.266C10.8951 17.2705 10.955 17.2705 11.0146 17.266C11.312 17.2188 11.577 17.0573 11.7499 16.8181L17.0479 9.67641C17.1505 9.53869 17.1967 9.36892 17.1776 9.19999C17.1584 9.03113 17.0752 8.87512 16.9442 8.76234L16.944 8.76231Z" fill="#B03227"/>
</svg>
