<?xml version="1.0" encoding="UTF-8"?><svg id="Layer_2" xmlns="http://www.w3.org/2000/svg" viewBox="0 0 18.13 18.35"><defs><style>.cls-1{fill:#fff;}</style></defs><g id="Layer_1-2"><path class="cls-1" d="M17.82,16.19l-4.13-3.89c.11-.3,.13-.62,.05-.93-.07-.31-.24-.59-.47-.81-.06-.06-.15-.09-.23-.09-.09,0-.17,.04-.23,.1l-.45,.48-1.4-1.33,6.88-6.49c.2-.2,.31-.48,.28-.76l-.21-2.17c-.01-.12-.09-.23-.21-.28-.12-.04-.25-.02-.34,.07L9.07,7.93,.76,.09C.67,0,.54-.02,.42,.02c-.12,.04-.2,.15-.21,.28L0,2.47h0c-.03,.28,.08,.56,.28,.76l6.88,6.49-1.41,1.33-.45-.48h0c-.06-.06-.14-.1-.23-.1-.09,0-.17,.03-.23,.09-.23,.22-.39,.5-.47,.81-.07,.31-.06,.63,.05,.93L.31,16.19c-.19,.18-.3,.42-.31,.68,0,.26,.09,.51,.27,.7l.45,.47c.18,.19,.42,.3,.68,.31h.03c.25,0,.49-.1,.67-.27l4.13-3.9c.19,.08,.39,.12,.59,.13h.04c.42,0,.82-.16,1.12-.44,.06-.06,.1-.14,.1-.23,0-.09-.03-.17-.09-.23l-.45-.47,1.52-1.43,1.52,1.43-.45,.47h0c-.06,.06-.09,.15-.09,.23,0,.09,.04,.17,.1,.23,.3,.29,.71,.45,1.13,.44h.04c.2,0,.4-.05,.59-.13l4.13,3.9c.18,.17,.42,.27,.67,.27h.03c.26,0,.51-.12,.68-.31l.45-.48c.18-.19,.27-.44,.27-.7,0-.26-.12-.5-.31-.68h0ZM1.65,17.61c-.06,.06-.15,.09-.23,.09-.09,0-.17-.04-.22-.1l-.45-.47c-.06-.06-.09-.15-.09-.23s.04-.17,.1-.23l.23-.22,.9,.95-.24,.22Zm1.66-1.56l-.89-.95,.47-.45,.9,.95-.48,.45Zm1.9-1.79l-.89-.95,.47-.45,.9,.95-.48,.45Zm1.9-1.79l-.9-.95,1.43-1.35,.95,.9-1.49,1.4Zm3.39-3.2l-.95-.9L17.34,1.02l.14,1.51c.01,.08-.02,.17-.08,.22l-6.9,6.52Zm2.52,2.95h0c-.04,.07-.09,.14-.14,.2l-.89,.95h0c-.06,.06-.12,.11-.19,.16-.27,.17-.62,.2-.92,.07l2.16-2.29c.15,.29,.14,.64-.02,.92h0Zm.86,2.93l-.48-.45,.9-.95,.47,.45-.89,.95Zm1.9,1.79l-.48-.45,.9-.95,.47,.45-.89,.95Z"/></g></svg>