<svg width="21" height="33" viewBox="0 0 21 33" fill="none" xmlns="http://www.w3.org/2000/svg">
<path d="M18.2624 16.412C18.2232 16.3264 18.1646 16.2511 18.0912 16.1921L18.0821 16.1868C18.0253 16.0934 17.9767 15.9901 17.938 15.9327C17.7303 15.6255 17.5468 15.3122 17.3276 15.0142C17.1761 14.8055 17.025 14.5972 16.8753 14.3896C16.3141 13.5954 15.7877 12.7538 15.4145 11.854C14.8493 10.4902 14.8283 9.0601 15.7551 7.8462C15.9856 7.544 16.2114 7.44558 16.5883 7.4693C18.589 7.59724 20.2865 6.10474 20.4979 4.06621C20.6958 2.15835 19.2794 0.349727 17.3568 0.0542225C15.8551 -0.176527 14.368 0.489714 13.589 1.74309C12.7634 3.0705 12.8027 4.65819 13.711 5.9199C13.8504 6.11369 13.867 6.28174 13.7669 6.47557C13.5284 6.93351 13.3181 7.41128 13.0338 7.83986C12.6834 8.36698 12.092 8.53377 11.5053 8.71663C10.4789 9.03695 9.39627 9.16281 8.32262 9.14807C7.76664 9.13669 7.21179 9.09319 6.66087 9.01779C6.14833 8.9506 5.61953 8.92203 5.12231 8.78107C5.14186 8.78625 5.1618 8.79286 5.18147 8.79993C4.94134 8.75163 4.83259 8.80262 4.80744 8.99645C4.76776 9.30582 4.6936 9.59899 4.63183 9.90232C3.55712 15.2639 2.48241 20.6254 1.4077 25.9869C0.983217 28.1047 0.561212 30.2231 0.141697 32.3421L0.204672 32.3838C0.236309 32.3701 0.266473 32.3533 0.294698 32.3336C1.14701 31.5887 1.99839 30.8438 2.84883 30.0987C6.91021 26.5448 10.9717 22.9911 15.0334 19.4374C16.0696 18.5311 17.0977 17.619 18.1442 16.7212C18.2543 16.6206 18.3039 16.5276 18.2624 16.412ZM13.8432 3.41857C13.8358 3.4702 13.8468 3.53424 13.82 3.57222C13.7618 3.64511 13.698 3.71338 13.6292 3.77641C13.5814 3.69792 13.4825 3.60883 13.4945 3.54286C13.5978 3.06905 13.7236 2.60037 13.8423 2.12937L13.917 2.14868C14.218 1.64133 14.6506 1.22416 15.1693 0.941052C15.2626 0.890321 15.4704 0.871408 15.5058 0.923949C15.6167 1.08068 15.4705 1.16477 15.3407 1.23524C14.4675 1.70752 13.9806 2.44397 13.8432 3.41857ZM14.5979 2.67953C14.8365 2.26924 15.1919 1.93873 15.6191 1.72984C16.0463 1.52095 16.5261 1.44307 16.9977 1.50606C17.4693 1.56904 17.9116 1.77007 18.2685 2.08369C18.6255 2.3973 18.8811 2.80941 19.0029 3.26785C19.1247 3.72629 19.1074 4.21045 18.953 4.65905C18.7987 5.10765 18.5142 5.50053 18.1357 5.78795C17.7572 6.07538 17.3017 6.24442 16.8268 6.2737C16.3518 6.30298 15.8789 6.19117 15.4677 5.95243C14.9171 5.63319 14.5162 5.10913 14.3531 4.49542C14.19 3.88171 14.278 3.22857 14.5979 2.67953ZM3.89719 19.6981C3.63999 19.6036 3.56867 19.4101 3.59731 19.2408C3.66672 18.838 3.74351 18.4382 3.81803 18.0371C4.31471 15.3565 4.81157 12.6755 5.30861 9.99418C5.34818 9.7807 5.35005 9.52185 5.79456 9.6665C6.07253 9.75782 6.16229 9.95948 6.09862 10.3061C5.53833 13.3441 4.97789 16.382 4.4173 19.4199C4.40448 19.4914 4.38728 19.5611 4.37217 19.6314L4.40885 19.7132C4.23677 19.7126 4.06049 19.7581 3.89719 19.6981ZM11.9831 16.0545C11.4696 16.0111 10.9588 15.9777 10.4401 15.9179C10.1896 15.8886 10.0636 15.9442 9.97094 16.0967C8.33509 18.8078 6.69405 21.5158 5.04784 24.2209C4.30135 25.4513 3.55624 26.6825 2.8125 27.9146C2.77081 27.9865 2.71568 28.0501 2.66714 28.1182L2.57253 28.0637C2.99232 27.3391 3.42353 26.621 3.8319 25.8897C5.41568 23.0358 6.99473 20.1805 8.56906 17.3239C8.85274 16.81 9.12545 16.2898 9.42421 15.7846C9.51366 15.6302 9.4836 15.4896 9.342 15.2891C8.44226 14.0159 7.55615 12.7401 6.66597 11.4651L6.73137 11.4469L8.04101 13.0507C8.62514 13.7664 9.21529 14.4801 9.78815 15.1984C9.9359 15.383 10.0783 15.4559 10.3081 15.4915C11.7829 15.7195 13.2607 15.9601 14.7377 16.1979C14.8684 16.215 14.9946 16.2565 15.1098 16.3203L11.9831 16.0545Z" fill="#00FF8B"/>
</svg>
