<svg width="22" height="33" viewBox="0 0 22 33" fill="none" xmlns="http://www.w3.org/2000/svg">
<path d="M18.7613 16.8065C18.7222 16.7207 18.6637 16.6452 18.5904 16.586L18.5812 16.5808C18.5245 16.4872 18.4759 16.3837 18.4374 16.3261C18.2299 16.0182 18.0466 15.7043 17.8277 15.4057C17.6764 15.1966 17.5255 14.9878 17.376 14.7797C16.8155 13.9839 16.2897 13.1405 15.9169 12.2388C15.3524 10.8722 15.3315 9.43905 16.2572 8.22259C16.4874 7.91976 16.7129 7.82113 17.0893 7.8449C19.0875 7.9731 20.783 6.47746 20.9941 4.43464C21.1918 2.52276 19.777 0.710335 17.8569 0.414209C16.357 0.182973 14.8718 0.850618 14.0937 2.10663C13.2691 3.43684 13.3084 5.02787 14.2155 6.29224C14.3548 6.48643 14.3713 6.65484 14.2714 6.84907C14.0332 7.30798 13.8231 7.78676 13.5392 8.21624C13.1892 8.74447 12.5986 8.91161 12.0126 9.09486C10.9874 9.41585 9.90617 9.54197 8.83385 9.5272C8.27856 9.51579 7.7244 9.4722 7.17415 9.39664C6.66225 9.32932 6.1341 9.30069 5.6375 9.15943C5.65702 9.16461 5.67694 9.17124 5.69658 9.17833C5.45675 9.12993 5.34813 9.18102 5.32301 9.37527C5.28339 9.68528 5.20932 9.97907 5.14763 10.283C4.07425 15.6559 3.00086 21.0287 1.92748 26.4015C1.50352 28.5237 1.08204 30.6466 0.663042 32.77L0.725939 32.8118C0.757537 32.7981 0.787662 32.7813 0.815853 32.7615C1.66711 32.0151 2.51744 31.2686 3.36683 30.5219C7.42318 26.9606 11.4797 23.3993 15.5364 19.8382C16.5713 18.93 17.598 18.016 18.6433 17.1163C18.7533 17.0154 18.8028 16.9223 18.7613 16.8065ZM14.3476 3.78564C14.3402 3.83738 14.3512 3.90155 14.3244 3.93961C14.2663 4.01266 14.2026 4.08107 14.1338 4.14424C14.0861 4.06558 13.9874 3.9763 13.9994 3.91019C14.1025 3.43539 14.2282 2.96572 14.3467 2.49373L14.4214 2.51308C14.722 2.00465 15.154 1.58661 15.672 1.3029C15.7653 1.25207 15.9728 1.23311 16.0081 1.28577C16.1189 1.44283 15.9729 1.5271 15.8432 1.59771C14.9711 2.07099 14.4848 2.80898 14.3476 3.78564ZM15.1013 3.04504C15.3397 2.63389 15.6947 2.30268 16.1213 2.09335C16.548 1.88402 17.0272 1.80598 17.4982 1.8691C17.9693 1.93222 18.411 2.13367 18.7675 2.44795C19.124 2.76222 19.3792 3.1752 19.5009 3.6346C19.6226 4.094 19.6053 4.57918 19.4511 5.02873C19.2969 5.47828 19.0129 5.87198 18.6348 6.16001C18.2568 6.44804 17.8018 6.61744 17.3275 6.64678C16.8532 6.67612 16.3808 6.56408 15.9701 6.32483C15.4202 6.00492 15.0198 5.47975 14.8569 4.86476C14.694 4.24976 14.7819 3.59524 15.1013 3.04504ZM4.41389 20.0995C4.15701 20.0047 4.08577 19.8108 4.11438 19.6411C4.18371 19.2375 4.26041 18.8369 4.33483 18.435C4.8309 15.7487 5.32715 13.062 5.82357 10.3751C5.86309 10.1612 5.86496 9.90177 6.30892 10.0467C6.58654 10.1382 6.67619 10.3403 6.6126 10.6876C6.053 13.732 5.49326 16.7764 4.93336 19.8206C4.92055 19.8924 4.90338 19.9622 4.88829 20.0326L4.92492 20.1146C4.75305 20.1139 4.57699 20.1596 4.41389 20.0995ZM12.4898 16.4482C11.9769 16.4047 11.4668 16.3712 10.9487 16.3113C10.6986 16.2819 10.5727 16.3376 10.4801 16.4905C8.8463 19.2072 7.20729 21.921 5.56311 24.6318C4.81756 25.8648 4.07336 27.0986 3.33054 28.3332C3.28891 28.4053 3.23384 28.4691 3.18536 28.5372L3.09087 28.4827C3.51014 27.7565 3.94082 27.0369 4.34868 26.3041C5.9305 23.4441 7.50761 20.5829 9.07998 17.7203C9.36332 17.2053 9.63569 16.684 9.93408 16.1777C10.0234 16.0229 9.99339 15.8821 9.85197 15.6811C8.95334 14.4052 8.06833 13.1268 7.17925 11.8491L7.24457 11.8309L8.55259 13.4381C9.13599 14.1553 9.72542 14.8705 10.2976 15.5903C10.4451 15.7753 10.5874 15.8483 10.8169 15.884C12.2898 16.1125 13.7658 16.3536 15.241 16.5918C15.3715 16.609 15.4976 16.6506 15.6126 16.7145L12.4898 16.4482Z" fill="white"/>
</svg>
