<svg width="1017" height="221" fill="none" version="1.1" viewBox="0 0 1017 221" xmlns="http://www.w3.org/2000/svg">
 <path d="m4.4315 44.12c1.6921 0 3.0638-1.3701 3.0638-3.0601s-1.3717-3.0599-3.0638-3.0599c-1.6921 0-3.0638 1.3699-3.0638 3.0599s1.3717 3.0601 3.0638 3.0601z" stroke="#ED1C24" stroke-miterlimit="10" stroke-width="2"/>
 <path d="m1011.7 7.12c1.69 0 3.06-1.3701 3.06-3.0601s-1.37-3.0599-3.06-3.0599c-1.7 0-3.07 1.37-3.07 3.0599s1.37 3.0601 3.07 3.0601z" stroke="#ED1C24" stroke-miterlimit="10" stroke-width="2"/>
 <path d="m1015.8 13.727v151.84l-41.62 41.54h-971.93v-151.84l41.611-41.54h971.94z" fill="#140000" opacity="1"/>
 <g stroke="#ED1C24" stroke-miterlimit="10" stroke-width="2">
  <path d="m6.9644 38.427 33.782-33.29h968.88"/>
  <path d="m1010.5 182.47-33.787 33.29h-968.88"/>
  <path d="m1012.7 183.12c1.69 0 3.06-1.37 3.06-3.06s-1.37-3.06-3.06-3.06-3.07 1.37-3.07 3.06 1.38 3.06 3.07 3.06z"/>
  <path d="m4.4315 219.12c1.6921 0 3.0638-1.37 3.0638-3.06s-1.3717-3.06-3.0638-3.06c-1.6921 0-3.0638 1.37-3.0638 3.06s1.3717 3.06 3.0638 3.06z"/>
 </g>
</svg>
