<svg width="1440" height="179" viewBox="0 0 1440 179" fill="none" xmlns="http://www.w3.org/2000/svg">
<path d="M0.104492 176.122L58.5221 176.122C59.1833 176.119 59.8372 175.987 60.4431 175.733C61.0492 175.478 61.5946 175.107 62.0459 174.642L74.166 162.09C74.2396 162.016 74.3362 161.967 74.4413 161.951C74.5464 161.935 74.6541 161.952 74.748 162L88.1155 168.916C88.184 168.957 88.2636 168.978 88.3442 168.976L234.7 168.976C235.395 168.976 236.063 168.722 236.571 168.266L250.146 156.174C250.237 156.092 250.355 156.046 250.479 156.044L339.259 156.044C339.388 156.045 339.512 156.095 339.602 156.184L348.032 164.289C348.55 164.781 349.248 165.058 349.976 165.058L546.309 165.058C546.438 165.06 546.562 165.11 546.652 165.198L555.124 173.343C555.214 173.432 555.338 173.482 555.467 173.483L665.909 172.714C666.038 172.715 666.162 172.765 666.252 172.854L671.98 178.36C672.07 178.449 672.194 178.499 672.323 178.5L792.235 178.5C792.299 178.501 792.363 178.488 792.422 178.464C792.481 178.44 792.534 178.405 792.578 178.36L815.041 156.713C815.132 156.627 815.255 156.578 815.384 156.578C815.512 156.578 815.635 156.627 815.727 156.713L824.042 164.759C824.135 164.843 824.258 164.89 824.385 164.888L994.191 164.888C994.254 164.888 994.316 164.9 994.373 164.924C994.431 164.949 994.482 164.984 994.524 165.028L1000.24 170.515C1000.33 170.601 1000.45 170.649 1000.58 170.649C1000.71 170.649 1000.83 170.601 1000.92 170.515L1015.64 156.374C1015.73 156.288 1015.85 156.239 1015.97 156.239C1016.1 156.239 1016.22 156.288 1016.31 156.374L1038.63 177.831C1038.72 177.917 1038.84 177.966 1038.97 177.966C1039.1 177.966 1039.22 177.917 1039.31 177.831L1061.63 156.374C1061.72 156.287 1061.85 156.238 1061.97 156.238C1062.1 156.238 1062.23 156.287 1062.32 156.374L1070.14 163.909C1070.24 163.99 1070.36 164.036 1070.49 164.039L1282.54 164.039C1282.66 164.038 1282.79 163.992 1282.88 163.909L1286.91 160.031C1287 159.945 1287.12 159.897 1287.25 159.897C1287.38 159.897 1287.5 159.945 1287.59 160.031L1294.1 166.288C1294.19 166.376 1294.31 166.426 1294.44 166.427L1430.45 166.428C1430.58 166.426 1430.7 166.376 1430.8 166.288L1441.75 155.754C1441.84 155.665 1441.89 155.547 1441.89 155.424L1441.89 0.000244141L0.104508 0.000118252L0.104492 176.122Z" fill="black"/>
</svg>
