<svg width="1440" height="1773" viewBox="0 0 1440 1773" fill="none" xmlns="http://www.w3.org/2000/svg">
<path d="M1441.89 2.37857H1383.47C1382.81 2.3808 1382.15 2.51324 1381.55 2.76762C1380.94 3.02199 1380.4 3.39291 1379.94 3.85765L1367.82 16.4101C1367.75 16.484 1367.65 16.5328 1367.55 16.549C1367.44 16.5652 1367.34 16.548 1367.24 16.5L1353.88 9.58426C1353.81 9.54336 1353.73 9.52247 1353.65 9.52424H1207.29C1206.6 9.52457 1205.93 9.7781 1205.42 10.2338L1191.84 22.3265C1191.75 22.408 1191.64 22.4543 1191.51 22.4564H1102.73C1102.6 22.4552 1102.48 22.4049 1102.39 22.3165L1093.96 14.2114C1093.44 13.7189 1092.74 13.4424 1092.01 13.4419H895.682C895.552 13.4407 895.429 13.3903 895.339 13.302L886.867 5.15691C886.776 5.06853 886.653 5.01821 886.524 5.01698L776.081 5.78653C775.952 5.78529 775.829 5.73497 775.738 5.6466L770.011 0.139945C769.92 0.0515693 769.797 0.00125358 769.668 1.59364e-05H649.756C649.692 -0.000503742 649.628 0.0116922 649.569 0.0357607C649.51 0.0598293 649.457 0.0952715 649.413 0.139945L626.95 21.7868C626.859 21.8734 626.735 21.9221 626.607 21.9221C626.479 21.9221 626.356 21.8734 626.264 21.7868L617.948 13.7416C617.856 13.6569 617.733 13.6103 617.605 13.6117H447.799C447.737 13.6121 447.675 13.5998 447.617 13.5757C447.56 13.5516 447.509 13.5163 447.467 13.4719L441.75 7.98514C441.66 7.89909 441.538 7.85082 441.412 7.85082C441.285 7.85082 441.164 7.89909 441.074 7.98514L426.355 22.1265C426.266 22.2126 426.144 22.261 426.017 22.261C425.891 22.261 425.769 22.2126 425.68 22.1265L403.362 0.669652C403.271 0.582985 403.148 0.534358 403.019 0.534358C402.891 0.534358 402.768 0.582985 402.676 0.669652L380.359 22.1265C380.268 22.2132 380.144 22.2618 380.016 22.2618C379.888 22.2618 379.764 22.2132 379.673 22.1265L371.846 14.5912C371.751 14.5098 371.63 14.4637 371.503 14.4613H159.453C159.326 14.4619 159.204 14.5082 159.11 14.5912L155.077 18.4689C154.987 18.5549 154.866 18.6032 154.739 18.6032C154.613 18.6032 154.491 18.5549 154.401 18.4689L147.894 12.2127C147.804 12.1243 147.681 12.074 147.551 12.0727H11.5381C11.409 12.074 11.2857 12.1243 11.1951 12.2127L0.239172 22.7462C0.151058 22.8349 0.102553 22.9534 0.104037 23.076L0.104037 1773H1441.89V2.37857Z" fill="black"/>
</svg>
