<svg width="1440" height="341" viewBox="0 0 1440 341" fill="none" xmlns="http://www.w3.org/2000/svg">
<path d="M1440 2.05452L1381.65 2.05452C1380.99 2.05645 1380.34 2.17084 1379.74 2.39056C1379.13 2.61029 1378.59 2.93067 1378.14 3.33209L1366.03 14.1744C1365.96 14.2382 1365.86 14.2804 1365.76 14.2944C1365.65 14.3084 1365.54 14.2935 1365.45 14.2521L1352.1 8.27853C1352.03 8.2432 1351.95 8.22516 1351.87 8.22668L1205.69 8.22668C1205 8.22697 1204.33 8.44596 1203.83 8.83955L1190.27 19.2848C1190.18 19.3552 1190.06 19.3952 1189.93 19.397L1101.26 19.397C1101.14 19.396 1101.01 19.3525 1100.92 19.2762L1092.5 12.2753C1091.99 11.8499 1091.29 11.611 1090.56 11.6106L894.471 11.6106C894.342 11.6095 894.218 11.5661 894.128 11.4897L885.667 4.45434C885.576 4.37801 885.453 4.33455 885.324 4.33348L775.018 4.99819C774.889 4.99712 774.766 4.95366 774.676 4.87732L768.955 0.12088C768.865 0.0445436 768.742 0.0010828 768.613 1.37653e-05L648.849 1.37653e-05C648.785 -0.000435114 648.721 0.0100993 648.662 0.0308888C648.603 0.0516783 648.55 0.082292 648.506 0.12088L626.071 18.8186C625.98 18.8935 625.857 18.9355 625.729 18.9355C625.6 18.9355 625.477 18.8935 625.386 18.8186L617.081 11.8695C616.989 11.7963 616.866 11.7561 616.738 11.7573L447.142 11.7573C447.079 11.7576 447.017 11.747 446.96 11.7262C446.903 11.7054 446.852 11.6749 446.81 11.6365L441.1 6.89726C441.01 6.82294 440.889 6.78125 440.762 6.78125C440.636 6.78125 440.514 6.82294 440.425 6.89726L425.724 19.1121C425.635 19.1864 425.513 19.2282 425.387 19.2282C425.26 19.2282 425.139 19.1864 425.049 19.1121L402.76 0.57842C402.669 0.503561 402.545 0.461559 402.417 0.461559C402.289 0.461559 402.166 0.503561 402.075 0.57842L379.785 19.1121C379.694 19.1869 379.571 19.2289 379.442 19.2289C379.314 19.2289 379.191 19.1869 379.1 19.1121L371.282 12.6034C371.188 12.5331 371.067 12.4932 370.94 12.4911L159.152 12.4911C159.025 12.4916 158.903 12.5317 158.81 12.6034L154.782 15.9527C154.692 16.027 154.571 16.0687 154.444 16.0687C154.318 16.0687 154.196 16.027 154.107 15.9527L147.608 10.5488C147.517 10.4725 147.394 10.429 147.265 10.428L11.42 10.428C11.291 10.429 11.1679 10.4725 11.0774 10.5488L0.135001 19.6473C0.0469962 19.7239 -0.00144947 19.8263 3.30496e-05 19.9322L3.30496e-05 340.5L1440 340.5V2.05452Z" fill="black"/>
</svg>
