<svg width="41" height="257" viewBox="0 0 41 257" fill="none" xmlns="http://www.w3.org/2000/svg">
<g opacity="0.24">
<path d="M1.00002 4.05748C1.00002 5.74608 2.29173 7.11495 3.88508 7.11495C5.47842 7.11495 6.77002 5.74608 6.77002 4.05748C6.77002 2.36888 5.47842 1 3.88508 1C2.29173 1 1.00002 2.36888 1.00002 4.05748Z" stroke="#ed1c24" stroke-width="2" stroke-miterlimit="10"/>
<path d="M34 252.942C34 254.631 35.2917 256 36.8851 256C38.4784 256 39.77 254.631 39.77 252.942C39.77 251.254 38.4784 249.885 36.8851 249.885C35.2917 249.885 34 251.254 34 252.942Z" stroke="#ed1c24" stroke-width="2" stroke-miterlimit="10"/>
<path d="M7.00001 6.29541L20.5 14.2694L20.5 242.97L34 250.944" stroke="#ed1c24" stroke-width="2" stroke-miterlimit="10"/>
</g>
</svg>
