<svg width="1354" height="49" viewBox="0 0 1354 49" fill="none" xmlns="http://www.w3.org/2000/svg">
<path d="M4.5 8C6.433 8 8 6.433 8 4.5C8 2.567 6.433 1 4.5 1C2.567 1 1 2.567 1 4.5C1 6.433 2.567 8 4.5 8Z" stroke="#00FF8B" stroke-opacity="0.25" stroke-miterlimit="10"/>
<path d="M1349.49 33C1351.41 33 1352.97 31.433 1352.97 29.5C1352.97 27.567 1351.41 26 1349.49 26C1347.56 26 1346 27.567 1346 29.5C1346 31.433 1347.56 33 1349.49 33Z" stroke="#00FF8B" stroke-opacity="0.25" stroke-miterlimit="10"/>
<path d="M6 7.5L15.5 24L36.4336 35H557L600.826 48.5H1318L1346.69 31" stroke="#00FF8B" stroke-opacity="0.25" stroke-miterlimit="10"/>
</svg>
