<svg width="463" height="138" viewBox="0 0 463 138" fill="none" xmlns="http://www.w3.org/2000/svg">
<path d="M0 113V24.5437H24.1244V113H0ZM36.1867 113V24.5437H124.643V48.6682H60.3111V88.8756H124.643V113H36.1867ZM136.705 137.124V24.5437H160.83V56.7096H201.037V24.5437L225.161 0.419292V113H201.037V80.8341H160.83V113L136.705 137.124ZM237.224 113V24.5437H261.348V113H237.224ZM337.742 137.124V113H273.41V24.5437H361.867V48.6682H297.535V88.8756H337.742V80.8341L361.867 56.7096V113L337.742 137.124ZM438.261 88.8756V48.6682H398.053V88.8756H438.261ZM373.929 113V24.5437H462.385V113H373.929Z" fill="white"/>
</svg>
