<?xml version="1.0" encoding="UTF-8"?><svg id="Layer_2" xmlns="http://www.w3.org/2000/svg" viewBox="0 0 70.57 24.05"><defs><style>.cls-1{fill:#fff;}</style></defs><g id="Layer_1-2"><g><path class="cls-1" d="M34.47,18.91c-.08,.02-.16,.04-.24,.04-1.02,0-2.05,0-3.07,0-.05,0-.1-.01-.16-.02-.02-.06-.06-.13-.06-.19-.01-.12-.01-.24-.01-.37,0-1.33,0-2.66,0-3.99,0-.1,0-.2,0-.29-.02-.18-.1-.26-.28-.27-.26-.01-.51,0-.77,0-1.71,0-3.42,0-5.12,0-.1,0-.2,0-.29,0-.16,.01-.21,.06-.22,.23,0,.23,0,.46,0,.7,0,1.83,0,3.66,.02,5.49,0,.29-.09,.5-.3,.71-.9,.89-1.8,1.79-2.69,2.69-.09,.09-.18,.2-.28,.29-.05,.05-.11,.09-.18,.12-.03,.01-.11-.02-.12-.05-.02-.09-.04-.19-.04-.29,0-.54,0-1.07,0-1.61,0-2.49,0-4.98,0-7.46,0-2.77,0-5.54-.01-8.3,0-.28,0-.56,0-.84,0-.12-.02-.25,.09-.37,.08,0,.17-.02,.27-.02,1.04,0,2.07,.01,3.11,.02,.03,0,.06,.03,.09,.05,.08,.13,.05,.27,.05,.4,0,1.4,0,2.8,0,4.21,0,.14-.03,.29,.08,.44,.1,0,.21,.02,.31,.02,1.9,0,3.81,0,5.71,0,.12,0,.24,0,.37-.01,.14-.02,.22-.1,.23-.24,0-.04,0-.07,0-.11,0-.76-.01-1.51-.01-2.27,0-.57,0-1.15,0-1.72,0-.55,0-1.1,0-1.65,0-.21,0-.41,0-.62,0-.16,.07-.28,.18-.38,.14-.14,.27-.28,.41-.42,.86-.86,1.72-1.73,2.59-2.59,.05-.05,.1-.1,.16-.15,.05-.05,.11-.11,.19-.06,.08,.04,.08,.12,.08,.19,0,.3,0,.61,0,.91,0,1.82,0,3.63,0,5.45,0,2.39,0,4.78,0,7.17,0,1.49,0,2.98,0,4.46,0,.23,.03,.46-.05,.7Z"/><path class="cls-1" d="M56.72,5.12c.12-.09,.24-.06,.36-.06,.5,0,1,0,1.5,0,2.7,0,5.39,0,8.09,0,1.09,0,2.17,0,3.26,0,.18,0,.36,0,.56,.02,.03,.09,.06,.17,.07,.25,.01,.12,0,.24,0,.37,0,2.17,0,4.34,0,6.51,0,2.11,0,4.22,0,6.33,0,.4,0,.41-.41,.41-2.65,0-5.29,0-7.94,0-1.68,0-3.37,0-5.05,0-.11,0-.22,0-.33-.01-.08,0-.14-.06-.15-.14-.01-.11-.02-.22-.02-.33,0-.51,0-1.02,0-1.54,0-1.35,0-2.71,0-4.06,0-2.41,0-4.83,0-7.24,0-.17-.03-.34,.06-.49Zm3.56,3.54c0,.16-.02,.27-.02,.37,0,.3,0,.61,0,.91,0,1.66,0,3.31,0,4.97,0,.07,0,.15,0,.22,.01,.11,.07,.18,.19,.19,.12,.01,.24,.02,.36,.02,.67,0,1.34,0,2.01,0,1.26,0,2.51,0,3.77,0,.11,0,.22,.02,.34-.07,0-.09,.02-.2,.02-.31,0-.34,0-.68,0-1.02,0-1.61,0-3.22,0-4.82,0-.09,0-.17,0-.26-.02-.14-.1-.21-.25-.22-.11,0-.22,0-.33,0-1.91,0-3.83,0-5.74,0-.11,0-.21,.01-.35,.02Z"/><path class="cls-1" d="M55.1,18.84c-.16,.13-.3,.09-.43,.1-.6,0-1.19,0-1.79,0-2.71,0-5.41,0-8.12,0-.99,0-1.98,0-2.96,0-.17,0-.34,.03-.5-.05-.1-.13-.07-.28-.08-.42,0-.39,0-.78,0-1.17,0-2.8,0-5.61-.02-8.41,0-.25,.07-.44,.26-.61,.44-.42,.87-.86,1.3-1.29,.09-.09,.19-.17,.23-.28,.07-.19,.19-.3,.36-.39,.12-.06,.22-.16,.31-.25,.25-.25,.51-.49,.75-.75,.18-.19,.38-.26,.65-.26,1.8,0,3.61,0,5.41,0,1.39,0,2.78,0,4.17,0,.13,0,.27-.05,.39,.09-.02,.05-.04,.1-.08,.15-.07,.08-.15,.16-.22,.24-.91,.92-1.83,1.83-2.74,2.74-.06,.06-.13,.12-.18,.18-.12,.14-.27,.19-.46,.19-.48,0-.95,0-1.43,0-1.02,0-2.05,0-3.07,0-.23,0-.43,.04-.59,.22-.41,.43-.83,.86-1.25,1.28-.15,.15-.2,.32-.2,.52,0,.89,0,1.78,.01,2.67,0,.29-.02,.58,.04,.88,.02,.08,0,.17-.02,.25-.03,.28-.03,.56,0,.81,.13,.12,.26,.09,.38,.09,.8,0,1.61,0,2.41,0,1.15,0,2.29,0,3.44,0,.44,0,.45,0,.45-.44,0-.35,0-.7,0-1.04-.11-.11-.22-.09-.33-.09-.68,0-1.37,0-2.05,0-1.05,0-2.1,0-3.15,0-.13,0-.26,0-.41-.06,.03-.07,.04-.12,.07-.17,.03-.05,.08-.09,.12-.14,.99-.99,1.98-1.98,2.97-2.98,.17-.17,.34-.24,.58-.24,1.8,0,3.61,0,5.41,0,.34,0,.38,.03,.38,.37,0,.96,0,1.93,0,2.89,0,1.61,0,3.22,0,4.83,0,.18,0,.36-.01,.54Z"/><path class="cls-1" d="M5.22,5.15s.08-.03,.13-.03c.49-.03,13.36-.02,13.61,.01,.11,.1,.08,.25,.08,.38,0,.91,0,1.83,0,2.74,0,.12,0,.24-.03,.34-.13,.11-.27,.09-.4,.09-.63,0-1.27,0-1.9,0-2.4,0-4.81,0-7.21,0-.1,0-.2,0-.29,0-.39,0-.45,.06-.46,.44,0,.32,0,.63,0,.95,0,1.02,0,2.05,0,3.07,0,.06,0,.12,0,.18-.03,.29,.08,.51,.3,.7,.38,.34,.74,.71,1.09,1.09,.19,.2,.4,.28,.68,.28,1.98-.01,3.95,0,5.93-.01,.6,0,1.2,0,1.79,0,.07,0,.15,0,.22,0,.24,.01,.29,.06,.3,.31,0,.52,0,1.05,0,1.57,0,.07,0,.15,0,.22-.03,.21,.16,.39,.05,.6-.1,.19-.04,.41-.06,.61-.02,.21-.05,.26-.27,.26-.6,0-1.2,0-1.79,0-2.62,0-5.24,0-7.87,0-.04,0-.07,0-.11,0-.26,.03-.46-.07-.65-.26-.76-.77-1.53-1.54-2.3-2.3-.23-.23-.46-.47-.7-.69-.15-.14-.22-.31-.22-.52,0-.41,0-.83,0-1.24,0-2.79,0-5.58-.01-8.38,0-.14-.03-.29,.07-.43Z"/><path class="cls-1" d="M3.61,15.5c-.05,.06-.09,.13-.14,.18-.11,.11-.23,.22-.34,.33-.89,.89-1.77,1.78-2.66,2.66-.09,.09-.18,.16-.27,.24-.05,.04-.14,0-.15-.06-.01-.11-.02-.22-.02-.33,0-1.21,0-2.41,0-3.62,0-.99,0-1.97,0-2.96-.01-.97,0-1.95,0-2.92,0-.1,0-.2,0-.29,0-.07,.02-.16,.07-.2,.19-.19,.33-.41,.54-.59,.39-.33,.74-.71,1.1-1.07,.49-.49,.98-.99,1.47-1.48,.07-.07,.15-.13,.22-.19,.07-.05,.16-.01,.17,.06,.01,.07,.02,.14,.02,.22,0,1.44,0,2.88,0,4.31,0,1.78,0,3.56,0,5.34,0,.12,0,.24,0,.36Z"/><path class="cls-1" d="M36.17,18.89c-.13-.09-.09-.22-.1-.33,0-.44,0-.88,0-1.32,0-2.69-.01-5.38,0-8.08,0-.71-.08-.53,.43-1.05,.9-.91,1.81-1.81,2.71-2.71,.03-.03,.05-.05,.08-.08,.09-.07,.16-.23,.29-.16,.13,.06,.08,.22,.08,.33,0,.89,0,1.78,0,2.67,0,1.97,0,3.95,0,5.92,0,.37,0,.73,0,1.1,0,.21-.06,.37-.22,.52-.36,.33-.68,.7-1.03,1.04-.66,.63-1.29,1.29-1.94,1.94-.09,.09-.17,.21-.32,.22Z"/></g></g></svg>