<svg width="100%" height="100%" viewBox="0 0 161 42" version="1.1" xmlns="http://www.w3.org/2000/svg" xmlns:xlink="http://www.w3.org/1999/xlink" style="fill-rule:evenodd;clip-rule:evenodd;stroke-linejoin:round;stroke-miterlimit:2;">
    <path d="M161,33.518L150.242,33.518C149.6,28.406 147.146,24.276 143.5,20.772L143.29,20.834L146.13,33.472C145.908,33.472 145.732,33.512 145.562,33.512L138.814,33.512C138.291,33.512 138.132,33.325 138.03,32.842C136.799,27.014 135.555,21.186 134.298,15.359C133.895,13.461 133.503,11.559 133.088,9.576L137.246,9.576C140.228,9.576 140.24,9.576 142.358,11.684C143.494,12.82 144.562,14.024 145.664,15.194C145.718,15.254 145.785,15.302 145.859,15.335C145.934,15.367 146.014,15.383 146.096,15.381C145.613,13.49 145.13,11.593 144.619,9.576L153.872,9.576C153.984,9.555 154.099,9.558 154.21,9.585C154.321,9.612 154.425,9.661 154.515,9.731C154.605,9.801 154.679,9.889 154.733,9.99C154.786,10.09 154.818,10.201 154.826,10.315C155.825,14.206 156.854,18.097 157.87,21.987C158.832,25.634 159.796,29.281 160.761,32.927C160.822,33.093 160.898,33.253 160.989,33.404L161,33.518Z" style="fill:white;fill-rule:nonzero;"/>
    <path d="M31.177,9.048C30.564,10.423 29.99,11.718 29.417,13.024L27.713,16.87C26.543,16.926 25.367,16.932 24.197,17.04C22.158,17.233 21.357,18.551 22.016,20.448C22.107,20.704 22.22,20.948 22.311,21.203C22.692,22.266 23.067,23.333 23.447,24.396C23.713,25.112 23.808,25.88 23.725,26.639C23.643,27.398 23.384,28.127 22.97,28.769C21.363,31.473 19.119,33.416 15.944,34.08C15.324,34.215 14.692,34.291 14.058,34.307L0.568,34.307C0.415,34.307 0.267,34.307 0,34.279C0.909,32.234 1.783,30.252 2.658,28.275C2.982,27.554 3.323,26.838 3.612,26.105C3.66,25.957 3.758,25.831 3.891,25.75C4.023,25.668 4.18,25.637 4.334,25.662C5.472,25.708 6.613,25.655 7.742,25.503C9.764,25.117 10.519,23.725 9.9,21.794C9.542,20.658 9.179,19.556 8.73,18.471C7.765,16.143 8.475,14.172 10.003,12.394C10.864,11.393 11.931,10.589 13.131,10.038C14.33,9.486 15.634,9.199 16.955,9.196C21.175,9.071 25.401,9.088 29.627,9.048C30.11,9.043 30.587,9.048 31.177,9.048Z" style="fill:white;fill-rule:nonzero;"/>
    <path d="M77.56,11.94C79.174,12.15 81.145,12.286 83.064,12.678C84.447,12.924 85.727,13.572 86.744,14.541C87.761,15.509 88.47,16.756 88.784,18.125C89.711,21.491 89.744,25.04 88.881,28.423C88.023,31.831 85.643,33.694 82.309,34.41C79.074,35.046 75.746,35.046 72.511,34.41C68.535,33.711 66.297,31.32 65.615,27.19C65.198,24.644 65.198,22.046 65.615,19.499C66.269,15.455 68.813,13.03 72.806,12.394C74.255,12.161 75.732,12.11 77.56,11.94ZM74.59,23.299C74.665,24.091 74.782,24.878 74.942,25.657C75.237,26.793 76.112,27.276 77.47,27.253C78.827,27.23 79.531,26.764 79.815,25.634C80.267,23.971 80.267,22.219 79.815,20.556C79.497,19.42 78.759,18.977 77.367,18.977C75.976,18.977 75.254,19.454 74.993,20.567C74.772,21.465 74.715,22.396 74.59,23.305L74.59,23.299Z" style="fill:white;fill-rule:nonzero;"/>
    <path d="M42.56,14.694C41.782,16.932 41.038,19.056 40.248,21.328L43.276,21.328C43.429,21.328 43.622,21.01 43.696,20.806C44.366,18.96 45.003,17.097 45.684,15.256C45.764,15.041 46.053,14.751 46.252,14.751C48.99,14.717 51.733,14.751 54.568,14.751C54.091,16.137 53.642,17.449 53.176,18.755C51.483,23.549 49.793,28.341 48.104,33.131C47.99,33.444 47.905,33.699 47.473,33.699L39.521,33.699C39.427,33.686 39.333,33.663 39.243,33.631C39.567,32.711 39.891,31.808 40.197,30.899C40.555,29.848 40.879,28.792 41.248,27.747C41.47,27.122 41.157,26.906 40.618,26.861C40.239,26.836 39.86,26.836 39.482,26.861C39.129,26.858 38.785,26.974 38.505,27.189C38.225,27.404 38.025,27.706 37.937,28.048C37.365,29.763 36.759,31.467 36.119,33.16C36.034,33.387 35.721,33.694 35.511,33.694C32.859,33.728 30.2,33.694 27.559,33.694C27.461,33.679 27.365,33.658 27.27,33.631C27.593,32.706 27.9,31.797 28.218,30.894C29.926,26.031 31.63,21.171 33.33,16.313C33.898,14.768 33.898,14.768 35.517,14.768L42.56,14.694Z" style="fill:white;fill-rule:nonzero;"/>
    <path d="M109.88,13.967L114.725,13.967L117.815,32.95C116.213,32.95 114.697,32.95 113.18,32.921C113.049,32.921 112.839,32.558 112.811,32.353C112.609,30.279 112.031,28.258 111.107,26.389C110.539,25.378 109.971,24.396 109.363,23.407C109.312,23.322 109.21,23.265 108.96,23.248C109.465,26.452 109.971,29.655 110.476,32.904C110.266,32.904 110.113,32.961 109.96,32.961L105.052,32.961C104.7,32.961 104.484,32.927 104.422,32.478C103.587,27.145 102.718,21.817 101.877,16.489C101.746,15.671 101.644,14.848 101.519,13.944L106.762,13.944C106.96,13.944 107.199,14.177 107.33,14.365C108.273,15.66 109.193,16.978 110.124,18.284C110.246,18.472 110.428,18.613 110.641,18.682C110.38,17.125 110.13,15.575 109.88,13.967Z" style="fill:white;fill-rule:nonzero;"/>
    <path d="M48.723,0C67.99,2.999 87.2,2.652 106.421,0.488C106.458,1.182 106.239,1.864 105.807,2.407C105.375,2.951 104.759,3.317 104.075,3.436C103.97,3.482 103.879,3.552 103.807,3.642C103.736,3.731 103.688,3.836 103.666,3.948C103.586,4.953 103.541,5.084 102.53,5.316C101.819,5.453 101.096,5.521 100.372,5.521C94.358,5.604 88.341,5.68 82.32,5.748C78.509,5.794 74.692,5.828 70.881,5.879C67.723,5.918 64.57,6.072 61.418,5.998C58.658,5.93 55.903,5.623 53.154,5.368C52.875,5.368 52.62,4.987 52.375,4.754C52.307,4.692 52.319,4.544 52.285,4.436C51.927,3.3 51.927,3.3 50.74,3.249C49.853,3.221 49.604,2.493 49.314,1.903C49.068,1.285 48.871,0.649 48.723,0Z" style="fill:white;fill-rule:nonzero;"/>
    <path d="M131.833,25.685L126.039,25.685C126.142,27.389 126.142,27.389 127.681,27.389L131.566,27.389C131.765,27.389 132.1,27.605 132.134,27.764C132.441,29.542 132.702,31.32 132.986,33.217L132.197,33.217C130.061,33.217 127.925,33.177 125.795,33.217C122.438,33.296 121.189,31.933 120.598,28.883C119.973,25.645 119.524,22.374 118.996,19.113C118.741,17.54 118.479,15.961 118.212,14.319L130.14,14.319C130.43,16.262 130.708,18.17 131.021,20.181L125.153,20.181C125.177,20.617 125.245,21.049 125.358,21.47C125.415,21.629 125.755,21.777 125.971,21.777C127.511,21.805 129.061,21.811 130.6,21.777C131.089,21.777 131.305,21.925 131.367,22.391C131.464,23.459 131.657,24.509 131.833,25.685Z" style="fill:white;fill-rule:nonzero;"/>
    <path d="M93.107,18.119C93.823,18.119 94.521,18.091 95.214,18.119C95.368,18.119 95.589,18.409 95.629,18.596C96.617,23.118 97.59,27.645 98.548,32.177C99.071,34.642 99.542,37.119 100.031,39.59C100.06,39.812 100.077,40.036 100.082,40.26C99.315,40.26 98.594,40.3 97.873,40.231C97.679,40.231 97.418,39.896 97.356,39.663C96.668,37.056 95.885,34.461 95.368,31.814C94.504,27.355 93.823,22.856 93.062,18.369C93.07,18.285 93.085,18.201 93.107,18.119Z" style="fill:white;fill-rule:nonzero;"/>
    <path d="M61.992,18.437C60.856,26.094 59.305,33.575 57.612,41.1L54.96,41.1L56.011,35.778C56.98,30.875 57.95,25.975 58.919,21.078C59.067,20.329 59.186,19.573 59.356,18.807C59.39,18.659 59.578,18.437 59.708,18.432C60.464,18.42 61.191,18.437 61.992,18.437Z" style="fill:white;fill-rule:nonzero;"/>
    <path d="M60.117,14.507C60.339,12.712 60.549,11.025 60.77,9.287L62.912,9.287C62.815,10.622 62.781,11.928 62.622,13.217C62.463,14.507 62.418,14.507 61.117,14.507L60.117,14.507Z" style="fill:white;fill-rule:nonzero;"/>
    <path d="M94.771,14.285L92.823,14.285C92.745,14.265 92.674,14.226 92.616,14.172C92.557,14.117 92.513,14.049 92.488,13.973C92.266,12.439 92.068,10.9 91.857,9.304L94.01,9.304C94.26,10.906 94.504,12.53 94.771,14.285Z" style="fill:white;fill-rule:nonzero;"/>
</svg>
