<svg width="161" height="42" viewBox="0 0 161 42" fill="none" xmlns="http://www.w3.org/2000/svg">
<path d="M161 33.5178H151.668H150.242C149.6 28.4058 147.146 24.2763 143.5 20.7717L143.29 20.8343L146.13 33.4723C145.908 33.4723 145.732 33.5121 145.562 33.5121C143.29 33.5121 141.063 33.5121 138.814 33.5121C138.291 33.5121 138.132 33.3246 138.03 32.8418C136.799 27.0141 135.555 21.1864 134.298 15.3587C133.895 13.4615 133.503 11.5588 133.088 9.57645H137.246C140.228 9.57645 140.24 9.57643 142.358 11.6837C143.494 12.8197 144.562 14.024 145.664 15.1941C145.718 15.2543 145.785 15.3022 145.859 15.3345C145.934 15.3669 146.014 15.3828 146.096 15.3814C145.613 13.49 145.13 11.5929 144.619 9.57645H145.494C148.282 9.57645 151.077 9.57645 153.872 9.57645C153.984 9.55532 154.099 9.55824 154.21 9.58491C154.321 9.61157 154.425 9.66143 154.515 9.73121C154.605 9.80098 154.679 9.88908 154.733 9.98969C154.786 10.0903 154.818 10.2011 154.826 10.3149C155.825 14.2057 156.854 18.0965 157.87 21.9873C158.832 25.6339 159.796 29.2805 160.761 32.9271C160.822 33.0929 160.898 33.2525 160.989 33.4041L161 33.5178Z" fill="white"/>
<path d="M31.1775 9.04818C30.5641 10.4227 29.9904 11.7178 29.4168 13.0242L27.7127 16.8696C26.5427 16.9264 25.3669 16.9321 24.1968 17.04C22.1577 17.2331 21.3569 18.5509 22.0157 20.448C22.1066 20.7036 22.2202 20.9478 22.311 21.2034C22.6916 22.2655 23.0665 23.3334 23.4471 24.3956C23.7129 25.1115 23.8083 25.8796 23.7254 26.6388C23.6426 27.398 23.3839 28.1274 22.9699 28.7692C21.3625 31.4729 19.1189 33.4155 15.9438 34.08C15.3238 34.2151 14.6924 34.2911 14.058 34.3072C9.55947 34.3072 5.06089 34.3072 0.568002 34.3072C0.414641 34.3072 0.266961 34.3072 0 34.2788C0.908802 32.234 1.78349 30.2516 2.65821 28.2749C2.98197 27.5536 3.3228 26.838 3.61248 26.1053C3.65953 25.9572 3.75829 25.8309 3.89073 25.7496C4.02316 25.6682 4.18046 25.6372 4.33385 25.6622C5.47232 25.7078 6.61259 25.6545 7.74186 25.5032C9.76395 25.1169 10.5193 23.7253 9.90023 21.7941C9.54239 20.6581 9.1789 19.5563 8.73018 18.4714C7.76458 16.1426 8.47457 14.1715 10.0025 12.3936C10.864 11.393 11.9308 10.5895 13.1305 10.0377C14.3301 9.48596 15.6344 9.19885 16.9548 9.19586C21.1751 9.0709 25.401 9.08794 29.6269 9.04818C30.1097 9.0425 30.5868 9.04818 31.1775 9.04818Z" fill="white"/>
<path d="M77.5604 11.9395C79.1736 12.1496 81.1446 12.2858 83.0644 12.6777C84.4471 12.9243 85.7267 13.5722 86.7438 14.5408C87.7609 15.5094 88.4704 16.7559 88.7841 18.1249C89.7105 21.4909 89.7438 25.04 88.8807 28.4227C88.023 31.8307 85.6431 33.6938 82.3089 34.4095C79.0739 35.0457 75.7459 35.0457 72.5109 34.4095C68.5349 33.7108 66.2969 31.3196 65.6153 27.1902C65.1979 24.6436 65.1979 22.046 65.6153 19.4994C66.2685 15.4553 68.8132 13.0299 72.8063 12.3937C74.2547 12.1609 75.7315 12.1099 77.5604 11.9395ZM74.5898 23.2995C74.6645 24.091 74.782 24.8778 74.9419 25.6566C75.2373 26.7926 76.112 27.2755 77.4695 27.2528C78.8271 27.23 79.5314 26.7642 79.8154 25.6339C80.267 23.9714 80.267 22.2185 79.8154 20.556C79.4973 19.42 78.7589 18.9769 77.3673 18.9769C75.9757 18.9769 75.2543 19.4541 74.993 20.5674C74.7715 21.4648 74.7147 22.3962 74.5898 23.305V23.2995Z" fill="#00FF8B"/>
<path d="M42.5601 14.6941C41.7819 16.932 41.0379 19.0563 40.2484 21.3283C41.356 21.3283 42.3159 21.3283 43.2758 21.3283C43.4291 21.3283 43.6222 21.0103 43.6961 20.8058C44.3663 18.9598 45.0025 17.0967 45.6841 15.2564C45.7636 15.0406 46.0533 14.7509 46.2521 14.7509C48.9899 14.7169 51.7333 14.7509 54.5676 14.7509C54.0905 16.1369 53.6418 17.449 53.1761 18.7554C51.4834 23.5493 49.7926 28.3413 48.1038 33.1314C47.9902 33.4438 47.905 33.6994 47.4733 33.6994C44.8151 33.6994 42.1625 33.6994 39.5213 33.6994C39.4266 33.6855 39.3334 33.6628 39.243 33.6313C39.5667 32.7111 39.8905 31.808 40.1972 30.8992C40.555 29.8484 40.8788 28.7919 41.248 27.7468C41.4696 27.122 41.1572 26.9061 40.6176 26.8606C40.2393 26.8358 39.8598 26.8358 39.4816 26.8606C39.1286 26.8582 38.7849 26.9737 38.505 27.1887C38.2252 27.4038 38.0251 27.7061 37.9365 28.0478C37.3648 29.7632 36.7589 31.4672 36.119 33.1598C36.0338 33.387 35.7213 33.6937 35.5112 33.6937C32.8586 33.7278 30.2004 33.6937 27.5591 33.6937C27.4614 33.6791 27.3647 33.6583 27.2695 33.6313C27.5933 32.7055 27.9 31.7966 28.218 30.8935C29.9258 26.0314 31.6298 21.1713 33.3301 16.313C33.8981 14.768 33.8981 14.768 35.5169 14.768L42.5601 14.6941Z" fill="white"/>
<path d="M109.88 13.9671H114.725L117.815 32.9498C116.213 32.9498 114.697 32.9498 113.18 32.9214C113.049 32.9214 112.839 32.5578 112.811 32.3534C112.609 30.2786 112.031 28.2577 111.107 26.3893C110.539 25.3783 109.971 24.3957 109.363 23.4073C109.312 23.3221 109.21 23.2653 108.96 23.2483C109.465 26.4518 109.971 29.6553 110.476 32.9043C110.266 32.9043 110.113 32.961 109.96 32.961H105.052C104.7 32.961 104.484 32.927 104.422 32.4783C103.587 27.1448 102.718 21.8168 101.877 16.489C101.746 15.671 101.644 14.8475 101.519 13.9443C103.32 13.9443 105.041 13.9443 106.762 13.9443C106.96 13.9443 107.199 14.1772 107.33 14.3647C108.273 15.6597 109.193 16.9775 110.124 18.2839C110.246 18.4721 110.428 18.6125 110.641 18.6815C110.38 17.1252 110.13 15.5745 109.88 13.9671Z" fill="white"/>
<path d="M48.7231 0C67.9898 2.99905 87.1996 2.65249 106.421 0.488404C106.458 1.18156 106.239 1.8642 105.807 2.40735C105.375 2.9505 104.759 3.3165 104.075 3.4363C103.97 3.48204 103.879 3.55249 103.807 3.64153C103.736 3.73058 103.688 3.83563 103.666 3.94758C103.586 4.95295 103.541 5.08354 102.53 5.31642C101.819 5.45279 101.096 5.52132 100.372 5.52096C94.3583 5.60426 88.3413 5.67994 82.3204 5.7481C78.5092 5.79354 74.6922 5.82761 70.8809 5.87873C67.7228 5.91849 64.5704 6.07183 61.418 5.99799C58.6575 5.92983 55.9027 5.62319 53.1536 5.36759C52.8753 5.36759 52.6197 4.98698 52.3754 4.7541C52.3073 4.69162 52.3186 4.54391 52.2845 4.43599C51.9267 3.29998 51.9267 3.30007 50.7396 3.24895C49.8535 3.22055 49.6036 2.49344 49.3139 1.90272C49.0681 1.28466 48.8706 0.648573 48.7231 0Z" fill="#00FF8B"/>
<path d="M131.833 25.6851H126.039C126.142 27.3891 126.142 27.3891 127.681 27.3891C128.976 27.3891 130.271 27.3891 131.566 27.3891C131.765 27.3891 132.1 27.6048 132.134 27.7639C132.441 29.5417 132.702 31.3196 132.986 33.2168H132.197C130.061 33.2168 127.925 33.177 125.795 33.2168C122.438 33.2963 121.189 31.933 120.598 28.8828C119.973 25.6452 119.524 22.3736 118.996 19.1132C118.741 17.5399 118.479 15.9609 118.212 14.3193H130.14C130.43 16.2619 130.708 18.1703 131.021 20.181H125.153C125.177 20.6167 125.245 21.0488 125.358 21.4704C125.415 21.6294 125.755 21.7771 125.971 21.7771C127.511 21.8055 129.061 21.8112 130.6 21.7771C131.089 21.7771 131.305 21.9249 131.367 22.3906C131.464 23.4585 131.657 24.5093 131.833 25.6851Z" fill="white"/>
<path d="M93.1069 18.1191C93.8226 18.1191 94.5213 18.0907 95.2143 18.1191C95.3676 18.1191 95.5891 18.4088 95.6289 18.5962C96.6172 23.1175 97.5904 27.6445 98.5484 32.1771C99.071 34.6422 99.5424 37.1187 100.031 39.5896C100.06 39.8119 100.077 40.0356 100.082 40.2598C99.3152 40.2598 98.5938 40.2995 97.8725 40.2313C97.6794 40.2313 97.4181 39.8962 97.3556 39.6633C96.6683 37.0562 95.8845 34.4605 95.3676 31.8136C94.5042 27.3548 93.8226 22.8562 93.0615 18.369C93.0696 18.2845 93.0848 18.2009 93.1069 18.1191Z" fill="#00FF8B"/>
<path d="M61.9918 18.4373C60.8557 26.094 59.3051 33.5745 57.6125 41.1005H54.96L56.0107 35.7784C56.9801 30.8747 57.9495 25.9746 58.9189 21.0785C59.0666 20.3287 59.1859 19.5733 59.3563 18.8065C59.3904 18.6588 59.5778 18.4373 59.7084 18.4316C60.4639 18.4203 61.1909 18.4373 61.9918 18.4373Z" fill="#00FF8B"/>
<path d="M60.1172 14.5068C60.3387 12.7119 60.5489 11.0249 60.7704 9.28687H62.9118C62.8152 10.6217 62.7811 11.9282 62.6221 13.2175C62.4631 14.5069 62.4176 14.5068 61.1169 14.5068H60.1172Z" fill="#00FF8B"/>
<path d="M94.7713 14.2851C94.0386 14.2851 93.4308 14.2851 92.823 14.2851C92.7454 14.2653 92.674 14.2264 92.6155 14.1718C92.5569 14.1172 92.5131 14.0487 92.4879 13.9727C92.2664 12.4391 92.0676 10.8998 91.8574 9.30371H94.0102C94.2601 10.9055 94.5043 12.53 94.7713 14.2851Z" fill="#00FF8B"/>
</svg>
