<svg width="57.702" height="41.1" clip-rule="evenodd" fill-rule="evenodd" stroke-linejoin="round" stroke-miterlimit="2" version="1.1" viewBox="0 0 57.702 41.1" xmlns="http://www.w3.org/2000/svg">
 <g fill="#fff" fill-rule="nonzero">
  <path d="m28.837 11.94c1.614 0.21 3.585 0.346 5.504 0.738 1.383 0.246 2.663 0.894 3.68 1.863 1.017 0.968 1.726 2.215 2.04 3.584 0.927 3.366 0.96 6.915 0.097 10.298-0.858 3.408-3.238 5.271-6.572 5.987-3.235 0.636-6.563 0.636-9.798 0-3.976-0.699-6.214-3.09-6.896-7.22-0.417-2.546-0.417-5.144 0-7.691 0.654-4.044 3.198-6.469 7.191-7.105 1.449-0.233 2.926-0.284 4.754-0.454zm-2.97 11.359c0.075 0.792 0.192 1.579 0.352 2.358 0.295 1.136 1.17 1.619 2.528 1.596 1.357-0.023 2.061-0.489 2.345-1.619 0.452-1.663 0.452-3.415 0-5.078-0.318-1.136-1.056-1.579-2.448-1.579-1.391 0-2.113 0.477-2.374 1.59-0.221 0.898-0.278 1.829-0.403 2.738z"/>
  <path d="m0 0c19.267 2.999 38.477 2.652 57.698 0.488 0.037 0.694-0.182 1.376-0.614 1.919-0.432 0.544-1.048 0.91-1.732 1.029-0.105 0.046-0.196 0.116-0.268 0.206-0.071 0.089-0.119 0.194-0.141 0.306-0.08 1.005-0.125 1.136-1.136 1.368-0.711 0.137-1.434 0.205-2.158 0.205-6.014 0.083-12.031 0.159-18.052 0.227-3.811 0.046-7.628 0.08-11.439 0.131-3.158 0.039-6.311 0.193-9.463 0.119-2.76-0.068-5.515-0.375-8.264-0.63-0.279 0-0.534-0.381-0.779-0.614-0.068-0.062-0.056-0.21-0.09-0.318-0.358-1.136-0.358-1.136-1.545-1.187-0.887-0.028-1.136-0.756-1.426-1.346-0.246-0.618-0.443-1.254-0.591-1.903z"/>
  <path d="m44.384 18.119c0.716 0 1.414-0.028 2.107 0 0.154 0 0.375 0.29 0.415 0.477 0.988 4.522 1.961 9.049 2.919 13.581 0.523 2.465 0.994 4.942 1.483 7.413 0.029 0.222 0.046 0.446 0.051 0.67-0.767 0-1.488 0.04-2.209-0.029-0.194 0-0.455-0.335-0.517-0.568-0.688-2.607-1.471-5.202-1.988-7.849-0.864-4.459-1.545-8.958-2.306-13.445 8e-3 -0.084 0.023-0.168 0.045-0.25z"/>
  <path d="m13.269 18.437c-1.136 7.657-2.687 15.138-4.38 22.663h-2.652l1.051-5.322c0.969-4.903 1.939-9.803 2.908-14.7 0.148-0.749 0.267-1.505 0.437-2.271 0.034-0.148 0.222-0.37 0.352-0.375 0.756-0.012 1.483 5e-3 2.284 5e-3z"/>
  <path d="m11.394 14.507c0.222-1.795 0.432-3.482 0.653-5.22h2.142c-0.097 1.335-0.131 2.641-0.29 3.93-0.159 1.29-0.204 1.29-1.505 1.29z"/>
  <path d="m46.048 14.285h-1.948c-0.078-0.02-0.149-0.059-0.207-0.113-0.059-0.055-0.103-0.123-0.128-0.199-0.222-1.534-0.42-3.073-0.631-4.669h2.153c0.25 1.602 0.494 3.226 0.761 4.981z"/>
 </g>
</svg>
