<svg width="266" height="141" fill="none" version="1.1" viewBox="0 0 266 141" xmlns="http://www.w3.org/2000/svg">
 <path d="m264.27 8.523v96.861l-26.421 26.498h-236.85v-96.86l26.229-26.499h237.04z" fill="#023019" opacity=".8"/>
 <g stroke="#00FF8B" stroke-miterlimit="10" stroke-width="1.8054">
  <path d="m262.27 115.2-22.073 22.712h-235.36"/>
  <path d="m263.06 115.6c1.082 0 1.958-0.877 1.958-1.958s-0.876-1.958-1.958-1.958c-1.081 0-1.957 0.877-1.957 1.958s0.876 1.958 1.957 1.958z"/>
  <path d="m2.9578 139.91c1.0812 0 1.9578-0.876 1.9578-1.958 0-1.081-0.87652-1.957-1.9578-1.957-1.0812 0-1.9578 0.876-1.9578 1.957 0 1.082 0.87652 1.958 1.9578 1.958z"/>
  <path d="m3.9556 25.71 22.073-22.712h234.01"/>
  <path d="m2.9578 25.314c-1.0812 0-1.9578 0.8766-1.9578 1.9578s0.87651 1.9577 1.9578 1.9577 1.9578-0.8765 1.9578-1.9577-0.87652-1.9578-1.9578-1.9578z"/>
  <path d="m262.35 1.0009c-1.081 0-1.958 0.87655-1.958 1.9578s0.877 1.9578 1.958 1.9578 1.958-0.87655 1.958-1.9578-0.877-1.9578-1.958-1.9578z"/>
 </g>
</svg>
