<svg width="271" height="198" viewBox="0 0 271 198" fill="none" xmlns="http://www.w3.org/2000/svg">
<path opacity="0.8" d="M265.95 11.8325V148.633L228.668 186.059H1V49.2582L38.0118 11.8325H265.95Z" fill="#140000"/>
<path d="M265.048 162.136L233.904 194.183H6.4165" stroke="#ED1C24" stroke-width="1.80545" stroke-miterlimit="10"/>
<path d="M266.456 162.696C267.981 162.696 269.218 161.459 269.218 159.934C269.218 158.408 267.981 157.171 266.456 157.171C264.93 157.171 263.693 158.408 263.693 159.934C263.693 161.459 264.93 162.696 266.456 162.696Z" stroke="#ED1C24" stroke-width="1.80545" stroke-miterlimit="10"/>
<path d="M3.76234 196.999C5.28795 196.999 6.52469 195.763 6.52469 194.237C6.52469 192.711 5.28795 191.475 3.76234 191.475C2.23674 191.475 1 192.711 1 194.237C1 195.763 2.23674 196.999 3.76234 196.999Z" stroke="#ED1C24" stroke-width="1.80545" stroke-miterlimit="10"/>
<path d="M5.17044 35.8637L36.3145 3.81694L263.802 3.81696" stroke="#ED1C24" stroke-width="1.80545" stroke-miterlimit="10"/>
<path d="M3.76256 35.3039C2.23696 35.3039 1.00022 36.5407 1.00022 38.0663C1.00022 39.5919 2.23696 40.8286 3.76256 40.8286C5.28816 40.8286 6.5249 39.5919 6.5249 38.0663C6.5249 36.5407 5.28816 35.3039 3.76256 35.3039Z" stroke="#ED1C24" stroke-width="1.80545" stroke-miterlimit="10"/>
<path d="M266.456 1.00011C264.93 1.00011 263.694 2.2369 263.694 3.7625C263.694 5.28811 264.93 6.5249 266.456 6.5249C267.982 6.5249 269.218 5.28811 269.218 3.7625C269.218 2.2369 267.982 1.00011 266.456 1.00011Z" stroke="#ED1C24" stroke-width="1.80545" stroke-miterlimit="10"/>
</svg>
