<svg width="578" height="578" viewBox="0 0 578 578" fill="none" xmlns="http://www.w3.org/2000/svg">
<path d="M288.973 576.162C447.736 576.162 576.438 447.459 576.438 288.697C576.438 129.934 447.736 1.23145 288.973 1.23145C130.21 1.23145 1.50781 129.934 1.50781 288.697C1.50781 447.459 130.21 576.162 288.973 576.162Z" fill="#38137F" stroke="url(#paint0_linear_8_2)" stroke-width="2.11385" stroke-miterlimit="10"/>
<path d="M288.974 141.155C323.107 141.162 356.182 153.003 382.564 174.661C408.946 196.319 427.002 226.455 433.656 259.933C440.311 293.411 435.152 328.161 419.058 358.262C402.964 388.363 376.931 411.953 345.395 425.012C313.859 438.071 278.77 439.792 246.107 429.881C213.444 419.971 185.228 399.042 166.266 370.66C147.304 342.278 138.769 308.2 142.116 274.231C145.463 240.262 160.483 208.505 184.619 184.369C198.291 170.622 214.554 159.725 232.467 152.307C250.38 144.889 269.586 141.099 288.974 141.155ZM288.974 37.6929C150.37 37.6929 38.0059 150.075 38.0059 288.661C38.0059 427.247 150.388 539.629 288.974 539.629C427.56 539.629 539.942 427.247 539.942 288.661C539.942 150.075 427.587 37.7285 288.974 37.7285V37.6929Z" fill="#F762DA"/>
<path d="M246.154 263.96C246.154 261.914 245.988 258.928 245.711 255.058C245.435 251.243 245.269 247.649 245.269 244.277C245.214 242.507 245.269 240.959 247.259 240.683C248.033 240.683 251.019 240.849 251.848 240.849C254.945 240.849 256.493 239.798 256.493 236.204C256.493 233.495 254.779 232.113 251.406 232.113C250.245 232.113 248.586 232.168 246.319 232.334C244.053 232.5 242.394 232.61 241.343 232.61C240.237 232.61 238.579 232.555 236.422 232.389C234.266 232.223 232.663 232.168 231.612 232.168C228.129 232.168 226.083 233.163 226.083 236.425C226.083 239.356 228.129 240.959 231.059 240.959C231.944 240.959 234.266 240.683 235.151 240.683C236.091 240.683 236.699 241.014 236.975 241.899C237.197 242.839 237.197 243.281 237.197 244.774C237.197 248.479 237.086 252.128 236.81 255.722C236.533 259.315 236.422 262.025 236.422 263.739C236.422 267.001 238.192 268.825 241.454 268.825C244.605 268.825 246.154 267.222 246.154 263.96ZM281.476 254.45C281.476 245.382 276.5 240.185 267.93 240.185C258.862 240.185 254.384 246.101 254.384 255.113C254.384 263.739 259.637 269.102 268.096 269.102C272.298 269.102 275.56 267.664 277.938 264.844C280.315 262.025 281.476 258.597 281.476 254.45ZM263.562 259.758C262.567 258.431 262.069 256.827 262.069 254.948C262.069 250.746 263.894 247.207 267.654 247.207C271.856 247.207 273.68 250.414 273.68 254.782C273.68 256.717 273.127 258.32 272.077 259.703C271.026 261.085 269.589 261.804 267.764 261.804C265.94 261.804 264.557 261.14 263.562 259.758ZM288.57 240.793C288.57 241.899 285.307 240.738 283.704 243.337C283.428 243.779 283.262 244.442 283.262 245.272C283.262 247.76 285.197 249.253 287.685 249.253C287.685 250.248 287.63 251.741 287.574 253.731C287.519 255.777 287.464 257.27 287.464 258.265C287.464 264.9 289.399 269.047 295.813 269.047C300.955 269.047 304.272 267.001 304.272 263.462C304.272 261.748 303.277 260.255 301.729 260.255C300.844 260.255 298.301 261.195 297.471 261.195C296.255 261.195 295.923 260.477 295.536 259.592C295.315 259.094 295.26 257.878 295.26 257.38C295.204 256.883 295.204 255.445 295.204 255.058C295.204 251.741 295.315 249.916 295.536 249.529C295.647 249.308 296.089 249.197 296.808 249.197C297.637 249.197 299.13 249.363 300.015 249.363C302.834 249.363 304.714 247.594 304.714 244.885C304.714 242.618 303.221 241.291 300.844 241.291C300.015 241.291 297.914 241.567 297.195 241.567C296.476 241.567 296.089 241.346 296.089 240.849C296.089 239.964 296.587 237.697 296.587 236.757C296.587 234.656 295.481 233.606 293.214 233.606C289.952 233.606 288.293 235.098 288.293 238.139C288.293 238.803 288.57 240.296 288.57 240.793ZM320.412 240.572C311.621 240.572 306.811 246.543 306.811 255.888C306.811 259.537 307.696 262.578 309.52 265.066C311.345 267.554 313.999 268.825 317.537 268.825C322.182 268.825 324.67 265.563 324.891 265.563C325.444 265.563 326.384 269.047 329.701 269.047C331.968 269.047 334.014 267.167 334.014 264.9C334.014 264.402 333.682 263.518 332.963 262.191C332.244 260.919 331.913 259.371 331.913 257.657C331.913 256.938 331.968 255.777 332.134 254.174C332.244 252.57 332.3 251.409 332.3 250.635C332.3 243.171 328.429 240.572 320.412 240.572ZM318.864 261.417C316.155 261.417 314.773 259.094 314.773 254.45C314.773 250.69 316.929 247.76 320.633 247.76C324.006 247.76 324.78 249.916 324.78 253.731C324.78 255.666 324.283 257.436 323.232 259.039C322.182 260.642 320.689 261.417 318.864 261.417ZM341.889 230.399C339.014 230.399 337.466 232.058 337.466 234.933C337.466 236.757 337.411 240.13 337.355 244.94C337.3 249.806 337.245 254.118 337.245 257.933C337.245 265.176 339.843 268.77 344.985 268.77C346.92 268.77 348.579 268.383 350.072 267.498C351.565 266.669 352.284 265.397 352.284 263.683C352.284 261.859 351.233 260.255 349.519 260.255C348.579 260.255 347.086 260.919 346.699 260.919C345.428 260.919 344.819 258.928 344.819 255.003C344.819 251.298 345.041 247.262 345.483 242.95C345.925 238.692 346.146 236.536 346.146 236.481C346.146 232.445 345.428 230.399 341.889 230.399Z" fill="white"/>
<path d="M205.82 318.036C205.82 316.987 205.179 316.376 203.898 316.23C203.81 316.23 203.257 316.172 203.14 316.143C203.024 316.114 202.732 315.968 202.616 315.706C202.47 315.414 202.412 313.9 202.412 311.132C202.412 309.821 202.47 308.598 202.587 307.404C202.703 306.209 202.762 305.394 202.762 304.957C202.762 302.597 201.975 301.257 199.79 301.257C199.12 301.257 198.246 301.461 197.635 301.665C197.256 301.782 196.44 302.131 196.207 302.219C196.033 302.306 194.926 302.83 194.838 302.859C193.79 303.413 193.265 304.17 193.265 305.161C193.265 306.326 194.052 307.054 195.246 307.054C195.712 307.054 196.79 306.646 197.256 306.646C197.868 306.646 198.159 307.112 198.159 308.074V312.968C198.159 314.016 198.159 314.366 198.043 315.036C197.868 315.881 197.285 316.259 196.12 316.259C194.401 316.259 193.556 316.929 193.556 318.269C193.556 320.017 194.576 320.629 196.353 320.629C196.906 320.629 198.742 320.512 199.237 320.512C199.645 320.512 200.256 320.541 201.072 320.57C201.888 320.6 202.499 320.629 202.878 320.629C204.626 320.629 205.82 319.813 205.82 318.036ZM210.351 315.211C209.04 315.211 207.759 316.084 207.759 317.366C207.759 317.716 207.904 318.153 208.166 318.648C208.429 319.143 208.574 319.493 208.574 319.697C208.574 320.192 208.312 320.745 207.788 321.357C207.263 321.969 207.001 322.406 207.001 322.668C207.001 323.716 207.962 324.357 208.807 324.357C210.031 324.357 211.108 323.775 212.041 322.61C212.973 321.415 213.439 320.192 213.439 318.91C213.439 316.784 212.361 315.211 210.351 315.211ZM214.54 310.637C214.54 317.424 217.249 320.833 222.638 320.833C228.668 320.833 230.794 316.521 230.794 310.754C230.794 304.724 228.289 301.199 222.696 301.199C220.104 301.199 218.094 302.073 216.666 303.792C215.239 305.539 214.54 307.811 214.54 310.637ZM222.638 316.871C221.24 316.871 220.249 315.997 219.812 314.599C219.346 313.201 219.23 312.064 219.23 310.666C219.23 307.025 220.337 305.219 222.521 305.219C223.949 305.219 224.968 305.86 225.434 307.025C225.871 308.19 226.017 309.239 226.017 310.725C226.017 311.22 226.017 311.628 225.988 312.006C225.959 312.734 225.842 313.929 225.551 314.686C225.085 315.91 224.269 316.871 222.638 316.871ZM232.063 310.637C232.063 317.424 234.772 320.833 240.161 320.833C246.191 320.833 248.318 316.521 248.318 310.754C248.318 304.724 245.813 301.199 240.22 301.199C237.627 301.199 235.617 302.073 234.19 303.792C232.762 305.539 232.063 307.811 232.063 310.637ZM240.161 316.871C238.763 316.871 237.773 315.997 237.336 314.599C236.87 313.201 236.753 312.064 236.753 310.666C236.753 307.025 237.86 305.219 240.045 305.219C241.472 305.219 242.492 305.86 242.958 307.025C243.395 308.19 243.54 309.239 243.54 310.725C243.54 311.22 243.54 311.628 243.511 312.006C243.482 312.734 243.366 313.929 243.074 314.686C242.608 315.91 241.793 316.871 240.161 316.871ZM249.587 310.637C249.587 317.424 252.296 320.833 257.685 320.833C263.715 320.833 265.841 316.521 265.841 310.754C265.841 304.724 263.336 301.199 257.743 301.199C255.151 301.199 253.141 302.073 251.713 303.792C250.286 305.539 249.587 307.811 249.587 310.637ZM257.685 316.871C256.287 316.871 255.296 315.997 254.859 314.599C254.393 313.201 254.277 312.064 254.277 310.666C254.277 307.025 255.384 305.219 257.568 305.219C258.996 305.219 260.015 305.86 260.481 307.025C260.918 308.19 261.064 309.239 261.064 310.725C261.064 311.22 261.064 311.628 261.035 312.006C261.006 312.734 260.889 313.929 260.598 314.686C260.132 315.91 259.316 316.871 257.685 316.871ZM269.578 315.211C268.268 315.211 266.986 316.084 266.986 317.366C266.986 317.716 267.131 318.153 267.394 318.648C267.656 319.143 267.801 319.493 267.801 319.697C267.801 320.192 267.539 320.745 267.015 321.357C266.491 321.969 266.228 322.406 266.228 322.668C266.228 323.716 267.19 324.357 268.034 324.357C269.258 324.357 270.336 323.775 271.268 322.61C272.2 321.415 272.666 320.192 272.666 318.91C272.666 316.784 271.588 315.211 269.578 315.211ZM273.767 310.637C273.767 317.424 276.476 320.833 281.865 320.833C287.895 320.833 290.022 316.521 290.022 310.754C290.022 304.724 287.516 301.199 281.923 301.199C279.331 301.199 277.321 302.073 275.893 303.792C274.466 305.539 273.767 307.811 273.767 310.637ZM281.865 316.871C280.467 316.871 279.476 315.997 279.04 314.599C278.573 313.201 278.457 312.064 278.457 310.666C278.457 307.025 279.564 305.219 281.749 305.219C283.176 305.219 284.196 305.86 284.662 307.025C285.099 308.19 285.244 309.239 285.244 310.725C285.244 311.22 285.244 311.628 285.215 312.006C285.186 312.734 285.069 313.929 284.778 314.686C284.312 315.91 283.496 316.871 281.865 316.871ZM291.291 310.637C291.291 317.424 294 320.833 299.389 320.833C305.419 320.833 307.545 316.521 307.545 310.754C307.545 304.724 305.04 301.199 299.447 301.199C296.854 301.199 294.844 302.073 293.417 303.792C291.99 305.539 291.291 307.811 291.291 310.637ZM299.389 316.871C297.99 316.871 297 315.997 296.563 314.599C296.097 313.201 295.98 312.064 295.98 310.666C295.98 307.025 297.087 305.219 299.272 305.219C300.7 305.219 301.719 305.86 302.185 307.025C302.622 308.19 302.768 309.239 302.768 310.725C302.768 311.22 302.768 311.628 302.739 312.006C302.709 312.734 302.593 313.929 302.302 314.686C301.836 315.91 301.02 316.871 299.389 316.871ZM308.814 310.637C308.814 317.424 311.523 320.833 316.912 320.833C322.942 320.833 325.069 316.521 325.069 310.754C325.069 304.724 322.563 301.199 316.97 301.199C314.378 301.199 312.368 302.073 310.941 303.792C309.513 305.539 308.814 307.811 308.814 310.637ZM316.912 316.871C315.514 316.871 314.524 315.997 314.087 314.599C313.621 313.201 313.504 312.064 313.504 310.666C313.504 307.025 314.611 305.219 316.796 305.219C318.223 305.219 319.243 305.86 319.709 307.025C320.146 308.19 320.291 309.239 320.291 310.725C320.291 311.22 320.291 311.628 320.262 312.006C320.233 312.734 320.117 313.929 319.825 314.686C319.359 315.91 318.543 316.871 316.912 316.871ZM328.806 315.211C327.495 315.211 326.213 316.084 326.213 317.366C326.213 317.716 326.359 318.153 326.621 318.648C326.883 319.143 327.029 319.493 327.029 319.697C327.029 320.192 326.767 320.745 326.242 321.357C325.718 321.969 325.456 322.406 325.456 322.668C325.456 323.716 326.417 324.357 327.262 324.357C328.485 324.357 329.563 323.775 330.495 322.61C331.427 321.415 331.893 320.192 331.893 318.91C331.893 316.784 330.816 315.211 328.806 315.211ZM332.994 310.637C332.994 317.424 335.703 320.833 341.092 320.833C347.122 320.833 349.249 316.521 349.249 310.754C349.249 304.724 346.744 301.199 341.151 301.199C338.558 301.199 336.548 302.073 335.121 303.792C333.693 305.539 332.994 307.811 332.994 310.637ZM341.092 316.871C339.694 316.871 338.704 315.997 338.267 314.599C337.801 313.201 337.684 312.064 337.684 310.666C337.684 307.025 338.791 305.219 340.976 305.219C342.403 305.219 343.423 305.86 343.889 307.025C344.326 308.19 344.472 309.239 344.472 310.725C344.472 311.22 344.472 311.628 344.442 312.006C344.413 312.734 344.297 313.929 344.005 314.686C343.539 315.91 342.724 316.871 341.092 316.871ZM350.518 310.637C350.518 317.424 353.227 320.833 358.616 320.833C364.646 320.833 366.772 316.521 366.772 310.754C366.772 304.724 364.267 301.199 358.674 301.199C356.082 301.199 354.072 302.073 352.644 303.792C351.217 305.539 350.518 307.811 350.518 310.637ZM358.616 316.871C357.218 316.871 356.227 315.997 355.79 314.599C355.324 313.201 355.208 312.064 355.208 310.666C355.208 307.025 356.315 305.219 358.499 305.219C359.927 305.219 360.946 305.86 361.412 307.025C361.849 308.19 361.995 309.239 361.995 310.725C361.995 311.22 361.995 311.628 361.966 312.006C361.937 312.734 361.82 313.929 361.529 314.686C361.063 315.91 360.247 316.871 358.616 316.871ZM368.041 310.637C368.041 317.424 370.75 320.833 376.139 320.833C382.169 320.833 384.296 316.521 384.296 310.754C384.296 304.724 381.791 301.199 376.198 301.199C373.605 301.199 371.595 302.073 370.168 303.792C368.74 305.539 368.041 307.811 368.041 310.637ZM376.139 316.871C374.741 316.871 373.751 315.997 373.314 314.599C372.848 313.201 372.731 312.064 372.731 310.666C372.731 307.025 373.838 305.219 376.023 305.219C377.45 305.219 378.47 305.86 378.936 307.025C379.373 308.19 379.519 309.239 379.519 310.725C379.519 311.22 379.519 311.628 379.489 312.006C379.46 312.734 379.344 313.929 379.052 314.686C378.586 315.91 377.771 316.871 376.139 316.871Z" fill="white"/>
<defs>
<linearGradient id="paint0_linear_8_2" x1="0.455349" y1="288.697" x2="577.5" y2="288.697" gradientUnits="userSpaceOnUse">
<stop stop-color="#F762DA"/>
<stop offset="1" stop-color="#A105FF"/>
</linearGradient>
</defs>
</svg>
